<svg xmlns="http://www.w3.org/2000/svg" width="47" height="47" viewBox="0 0 47 47" fill="none">
  <path fill-rule="evenodd" clip-rule="evenodd" d="M23.7948 0.891602C11.1975 0.891602 0.890625 11.1985 0.890625 23.7958C0.890625 36.3931 11.1975 46.7 23.7948 46.7C36.3921 46.7 46.699 36.3931 46.699 23.7958C46.699 11.1985 36.5066 0.891602 23.7948 0.891602ZM34.3307 33.9881C33.8727 34.6753 33.071 34.9043 32.3839 34.4462C27.0014 31.1251 20.2447 30.438 12.2282 32.2703C11.4265 32.4994 10.7394 31.9268 10.5104 31.2396C10.2813 30.438 10.8539 29.7509 11.5411 29.5218C20.2447 27.575 27.803 28.3766 33.7581 32.0413C34.5598 32.3849 34.6743 33.301 34.3307 33.9881ZM37.0792 27.6895C36.5066 28.4911 35.4759 28.8347 34.6743 28.2621C28.4902 24.4829 19.0995 23.3377 11.8846 25.6281C10.9685 25.8572 9.93778 25.3991 9.70874 24.4829C9.47969 23.5667 9.93778 22.5361 10.8539 22.307C19.214 19.7876 29.5209 21.0473 36.6212 25.3991C37.3083 25.7426 37.6518 26.8878 37.0792 27.6895ZM37.3083 21.2763C29.9789 16.9245 17.7252 16.4664 10.7394 18.6423C9.59421 18.9859 8.44901 18.2988 8.10544 17.2681C7.76188 16.1229 8.44901 14.9777 9.47969 14.6341C17.6107 12.2292 31.0096 12.6873 39.4842 17.7262C40.5149 18.2988 40.8584 19.673 40.2858 20.7037C39.7132 21.5054 38.339 21.8489 37.3083 21.2763Z" fill="#FFF9F5"/>
</svg>